<mxfile host="app.diagrams.net" modified="2022-09-19T15:19:40.599Z" agent="5.0 (Macintosh; Intel Mac OS X 10_15_7) AppleWebKit/537.36 (KHTML, like Gecko) Chrome/103.0.5060.134 Safari/537.36 OPR/89.0.4447.83" etag="tE38tE0_ot4co7Q30Z-V" version="20.2.3" type="github">
  <diagram id="tbDaye7mkDw9fnkfzVPG" name="Page-1">
    <mxGraphModel dx="1276" dy="727" grid="1" gridSize="10" guides="1" tooltips="1" connect="1" arrows="1" fold="1" page="1" pageScale="1" pageWidth="827" pageHeight="1169" math="0" shadow="0">
      <root>
        <mxCell id="0" />
        <mxCell id="1" parent="0" />
        <mxCell id="gRhOLGx99s6_qw-bicws-1" value="&lt;font color=&quot;#994c00&quot;&gt;def&lt;/font&gt; &lt;font color=&quot;#1a1a1a&quot;&gt;func&lt;/font&gt;(&amp;nbsp; &amp;nbsp; &amp;nbsp; &amp;nbsp; &amp;nbsp; ):&lt;br&gt;&amp;nbsp; &amp;nbsp;&amp;nbsp;" style="text;html=1;strokeColor=none;fillColor=none;align=left;verticalAlign=middle;whiteSpace=wrap;rounded=0;fontSize=20;fontFamily=Courier New;fontStyle=1" vertex="1" parent="1">
          <mxGeometry x="260" y="201" width="260" height="30" as="geometry" />
        </mxCell>
        <mxCell id="gRhOLGx99s6_qw-bicws-3" value="&lt;font style=&quot;font-size: 20px;&quot;&gt;&lt;font color=&quot;#009900&quot; style=&quot;font-size: 20px;&quot;&gt;*&lt;/font&gt;&lt;font color=&quot;#009900&quot; style=&quot;font-size: 20px;&quot;&gt;pos&lt;/font&gt;&lt;/font&gt;" style="text;html=1;strokeColor=none;fillColor=none;align=center;verticalAlign=middle;whiteSpace=wrap;rounded=0;sketch=1;fontSize=19;fontFamily=Courier New;fontStyle=1" vertex="1" parent="1">
          <mxGeometry x="384" y="189" width="30" height="30" as="geometry" />
        </mxCell>
        <mxCell id="gRhOLGx99s6_qw-bicws-4" value="&lt;font style=&quot;font-size: 30px;&quot;&gt;,&lt;/font&gt;" style="text;html=1;strokeColor=none;fillColor=none;align=center;verticalAlign=middle;whiteSpace=wrap;rounded=0;sketch=1;fontSize=19;fontColor=#1A1A1A;" vertex="1" parent="1">
          <mxGeometry x="422" y="186" width="14" height="30" as="geometry" />
        </mxCell>
        <mxCell id="gRhOLGx99s6_qw-bicws-6" value="&lt;font face=&quot;Courier New&quot; style=&quot;font-size: 20px;&quot;&gt;&lt;b&gt;**kw&lt;/b&gt;&lt;/font&gt;" style="text;html=1;strokeColor=none;fillColor=none;align=center;verticalAlign=middle;whiteSpace=wrap;rounded=0;sketch=1;fontSize=19;fontColor=#4C0099;" vertex="1" parent="1">
          <mxGeometry x="445" y="195" width="30" height="17" as="geometry" />
        </mxCell>
      </root>
    </mxGraphModel>
  </diagram>
</mxfile>
